<?xml version="1.0" encoding="UTF-8" standalone="no"?>
<!-- Created with Inkscape (http://www.inkscape.org/) -->

<svg
   xmlns:dc="http://purl.org/dc/elements/1.1/"
   xmlns:cc="http://creativecommons.org/ns#"
   xmlns:rdf="http://www.w3.org/1999/02/22-rdf-syntax-ns#"
   xmlns:svg="http://www.w3.org/2000/svg"
   xmlns="http://www.w3.org/2000/svg"
   xmlns:sodipodi="http://sodipodi.sourceforge.net/DTD/sodipodi-0.dtd"
   xmlns:inkscape="http://www.inkscape.org/namespaces/inkscape"
   width="100"
   height="100"
   id="svg2"
   version="1.1"
   inkscape:version="0.48.2 r9819"
   sodipodi:docname="dot.svg">
  <defs
     id="defs4" />
  <sodipodi:namedview
     id="base"
     pagecolor="#ffffff"
     bordercolor="#666666"
     borderopacity="1.0"
     inkscape:pageopacity="0.0"
     inkscape:pageshadow="2"
     inkscape:zoom="6.9604261"
     inkscape:cx="60.209198"
     inkscape:cy="51.760502"
     inkscape:document-units="px"
     inkscape:current-layer="g2989"
     showgrid="false"
     borderlayer="false"
     inkscape:window-width="1468"
     inkscape:window-height="906"
     inkscape:window-x="129"
     inkscape:window-y="43"
     inkscape:window-maximized="0" />
  <metadata
     id="metadata7">
    <rdf:RDF>
      <cc:Work
         rdf:about="">
        <dc:format>image/svg+xml</dc:format>
        <dc:type
           rdf:resource="http://purl.org/dc/dcmitype/StillImage" />
        <dc:title />
      </cc:Work>
    </rdf:RDF>
  </metadata>
  <g
     inkscape:label="Layer 1"
     inkscape:groupmode="layer"
     id="layer1"
     transform="translate(0,-952.36217)">
    <g
       id="g2989">
      <path
         inkscape:connector-curvature="0"
         d="m 49.5,1049.8622 c 0,-1.1046 -0.895431,-2 -2,-2 -1.104569,0 -2,0.8954 -2,2 0,1.1046 0.895431,2 2,2 1.104569,0 2,-0.8954 2,-2 z m -5,0 c 0,-1.1046 -0.895431,-2 -2,-2 -1.104569,0 -2,0.8954 -2,2 0,1.1046 0.895431,2 2,2 1.104569,0 2,-0.8954 2,-2 z m -5,0 c 0,-1.1046 -0.895431,-2 -2,-2 -1.104569,0 -2,0.8954 -2,2 0,1.1046 0.895431,2 2,2 1.104569,0 2,-0.8954 2,-2 z m -5,0 c 0,-1.1046 -0.895431,-2 -2,-2 -1.10457,0 -2,0.8954 -2,2 0,1.1046 0.89543,2 2,2 1.104569,0 2,-0.8954 2,-2 z m -5,0 c 0,-1.1046 -0.895431,-2 -2,-2 -1.10457,0 -2,0.8954 -2,2 0,1.1046 0.89543,2 2,2 1.104569,0 2,-0.8954 2,-2 z m -5,0 c 0,-1.1046 -0.895431,-2 -2,-2 -1.10457,0 -2,0.8954 -2,2 0,1.1046 0.89543,2 2,2 1.104569,0 2,-0.8954 2,-2 z m -5,0 c 0,-1.1046 -0.895431,-2 -2,-2 -1.10457,0 -2,0.8954 -2,2 0,1.1046 0.89543,2 2,2 1.104569,0 2,-0.8954 2,-2 z m -5,0 c 0,-1.1046 -0.895431,-2 -2,-2 -1.10457,0 -2,0.8954 -2,2 0,1.1046 0.89543,2 2,2 1.104569,0 2,-0.8954 2,-2 z m -4.9999995,0 c 0,-1.1046 -0.895431,-2 -2.0000005,-2 -1.1045695,0 -2,0.8954 -2,2 0,1.1046 0.8954305,2 2,2 1.1045695,0 2.0000005,-0.8954 2.0000005,-2 z m -5,0 c 0,-1.1046 -0.8954309,-2 -2.0000005,-2 -1.1045696,0 -2.00000005,0.8954 -2.00000005,2 0,1.1046 0.89543045,2 2.00000005,2 1.1045696,0 2.0000005,-0.8954 2.0000005,-2 z m 44.9999995,-5 c 0,-1.1046 -0.895431,-2 -2,-2 -1.104569,0 -2,0.8954 -2,2 0,1.1046 0.895431,2 2,2 1.104569,0 2,-0.8954 2,-2 z m -5,0 c 0,-1.1046 -0.895431,-2 -2,-2 -1.104569,0 -2,0.8954 -2,2 0,1.1046 0.895431,2 2,2 1.104569,0 2,-0.8954 2,-2 z m -5,0 c 0,-1.1046 -0.895431,-2 -2,-2 -1.104569,0 -2,0.8954 -2,2 0,1.1046 0.895431,2 2,2 1.104569,0 2,-0.8954 2,-2 z m -5,0 c 0,-1.1046 -0.895431,-2 -2,-2 -1.10457,0 -2,0.8954 -2,2 0,1.1046 0.89543,2 2,2 1.104569,0 2,-0.8954 2,-2 z m -5,0 c 0,-1.1046 -0.895431,-2 -2,-2 -1.10457,0 -2,0.8954 -2,2 0,1.1046 0.89543,2 2,2 1.104569,0 2,-0.8954 2,-2 z m -5,0 c 0,-1.1046 -0.895431,-2 -2,-2 -1.10457,0 -2,0.8954 -2,2 0,1.1046 0.89543,2 2,2 1.104569,0 2,-0.8954 2,-2 z m -5,0 c 0,-1.1046 -0.895431,-2 -2,-2 -1.10457,0 -2,0.8954 -2,2 0,1.1046 0.89543,2 2,2 1.104569,0 2,-0.8954 2,-2 z m -5,0 c 0,-1.1046 -0.895431,-2 -2,-2 -1.10457,0 -2,0.8954 -2,2 0,1.1046 0.89543,2 2,2 1.104569,0 2,-0.8954 2,-2 z m -4.9999995,0 c 0,-1.1046 -0.895431,-2 -2.0000005,-2 -1.1045695,0 -2,0.8954 -2,2 0,1.1046 0.8954305,2 2,2 1.1045695,0 2.0000005,-0.8954 2.0000005,-2 z m -5,0 c 0,-1.1046 -0.8954309,-2 -2.0000005,-2 -1.1045696,0 -2.00000005,0.8954 -2.00000005,2 0,1.1046 0.89543045,2 2.00000005,2 1.1045696,0 2.0000005,-0.8954 2.0000005,-2 z m 44.9999995,-5 c 0,-1.1046 -0.895431,-2 -2,-2 -1.104569,0 -2,0.8954 -2,2 0,1.1046 0.895431,2 2,2 1.104569,0 2,-0.8954 2,-2 z m -5,0 c 0,-1.1046 -0.895431,-2 -2,-2 -1.104569,0 -2,0.8954 -2,2 0,1.1046 0.895431,2 2,2 1.104569,0 2,-0.8954 2,-2 z m -5,0 c 0,-1.1046 -0.895431,-2 -2,-2 -1.104569,0 -2,0.8954 -2,2 0,1.1046 0.895431,2 2,2 1.104569,0 2,-0.8954 2,-2 z m -5,0 c 0,-1.1046 -0.895431,-2 -2,-2 -1.10457,0 -2,0.8954 -2,2 0,1.1046 0.89543,2 2,2 1.104569,0 2,-0.8954 2,-2 z m -5,0 c 0,-1.1046 -0.895431,-2 -2,-2 -1.10457,0 -2,0.8954 -2,2 0,1.1046 0.89543,2 2,2 1.104569,0 2,-0.8954 2,-2 z m -5,0 c 0,-1.1046 -0.895431,-2 -2,-2 -1.10457,0 -2,0.8954 -2,2 0,1.1046 0.89543,2 2,2 1.104569,0 2,-0.8954 2,-2 z m -5,0 c 0,-1.1046 -0.895431,-2 -2,-2 -1.10457,0 -2,0.8954 -2,2 0,1.1046 0.89543,2 2,2 1.104569,0 2,-0.8954 2,-2 z m -5,0 c 0,-1.1046 -0.895431,-2 -2,-2 -1.10457,0 -2,0.8954 -2,2 0,1.1046 0.89543,2 2,2 1.104569,0 2,-0.8954 2,-2 z m -4.9999995,0 c 0,-1.1046 -0.895431,-2 -2.0000005,-2 -1.1045695,0 -2,0.8954 -2,2 0,1.1046 0.8954305,2 2,2 1.1045695,0 2.0000005,-0.8954 2.0000005,-2 z m -5,0 c 0,-1.1046 -0.8954309,-2 -2.0000005,-2 -1.1045696,0 -2.00000005,0.8954 -2.00000005,2 0,1.1046 0.89543045,2 2.00000005,2 1.1045696,0 2.0000005,-0.8954 2.0000005,-2 z m 44.9999995,-5 c 0,-1.1046 -0.895431,-2 -2,-2 -1.104569,0 -2,0.8954 -2,2 0,1.1046 0.895431,2 2,2 1.104569,0 2,-0.8954 2,-2 z m -5,0 c 0,-1.1046 -0.895431,-2 -2,-2 -1.104569,0 -2,0.8954 -2,2 0,1.1046 0.895431,2 2,2 1.104569,0 2,-0.8954 2,-2 z m -5,0 c 0,-1.1046 -0.895431,-2 -2,-2 -1.104569,0 -2,0.8954 -2,2 0,1.1046 0.895431,2 2,2 1.104569,0 2,-0.8954 2,-2 z m -5,0 c 0,-1.1046 -0.895431,-2 -2,-2 -1.10457,0 -2,0.8954 -2,2 0,1.1046 0.89543,2 2,2 1.104569,0 2,-0.8954 2,-2 z m -5,0 c 0,-1.1046 -0.895431,-2 -2,-2 -1.10457,0 -2,0.8954 -2,2 0,1.1046 0.89543,2 2,2 1.104569,0 2,-0.8954 2,-2 z m -5,0 c 0,-1.1046 -0.895431,-2 -2,-2 -1.10457,0 -2,0.8954 -2,2 0,1.1046 0.89543,2 2,2 1.104569,0 2,-0.8954 2,-2 z m -5,0 c 0,-1.1046 -0.895431,-2 -2,-2 -1.10457,0 -2,0.8954 -2,2 0,1.1046 0.89543,2 2,2 1.104569,0 2,-0.8954 2,-2 z m -5,0 c 0,-1.1046 -0.895431,-2 -2,-2 -1.10457,0 -2,0.8954 -2,2 0,1.1046 0.89543,2 2,2 1.104569,0 2,-0.8954 2,-2 z m -4.9999995,0 c 0,-1.1046 -0.895431,-2 -2.0000005,-2 -1.1045695,0 -2,0.8954 -2,2 0,1.1046 0.8954305,2 2,2 1.1045695,0 2.0000005,-0.8954 2.0000005,-2 z m -5,0 c 0,-1.1046 -0.8954309,-2 -2.0000005,-2 -1.1045696,0 -2.00000005,0.8954 -2.00000005,2 0,1.1046 0.89543045,2 2.00000005,2 1.1045696,0 2.0000005,-0.8954 2.0000005,-2 z m 44.9999995,-5 c 0,-1.1046 -0.895431,-2 -2,-2 -1.104569,0 -2,0.8954 -2,2 0,1.1046 0.895431,2 2,2 1.104569,0 2,-0.8954 2,-2 z m -5,0 c 0,-1.1046 -0.895431,-2 -2,-2 -1.104569,0 -2,0.8954 -2,2 0,1.1046 0.895431,2 2,2 1.104569,0 2,-0.8954 2,-2 z m -5,0 c 0,-1.1046 -0.895431,-2 -2,-2 -1.104569,0 -2,0.8954 -2,2 0,1.1046 0.895431,2 2,2 1.104569,0 2,-0.8954 2,-2 z m -5,0 c 0,-1.1046 -0.895431,-2 -2,-2 -1.10457,0 -2,0.8954 -2,2 0,1.1046 0.89543,2 2,2 1.104569,0 2,-0.8954 2,-2 z m -5,0 c 0,-1.1046 -0.895431,-2 -2,-2 -1.10457,0 -2,0.8954 -2,2 0,1.1046 0.89543,2 2,2 1.104569,0 2,-0.8954 2,-2 z m -5,0 c 0,-1.1046 -0.895431,-2 -2,-2 -1.10457,0 -2,0.8954 -2,2 0,1.1046 0.89543,2 2,2 1.104569,0 2,-0.8954 2,-2 z m -5,0 c 0,-1.1046 -0.895431,-2 -2,-2 -1.10457,0 -2,0.8954 -2,2 0,1.1046 0.89543,2 2,2 1.104569,0 2,-0.8954 2,-2 z m -5,0 c 0,-1.1046 -0.895431,-2 -2,-2 -1.10457,0 -2,0.8954 -2,2 0,1.1046 0.89543,2 2,2 1.104569,0 2,-0.8954 2,-2 z m -4.9999995,0 c 0,-1.1046 -0.895431,-2 -2.0000005,-2 -1.1045695,0 -2,0.8954 -2,2 0,1.1046 0.8954305,2 2,2 1.1045695,0 2.0000005,-0.8954 2.0000005,-2 z m -5,0 c 0,-1.1046 -0.8954309,-2 -2.0000005,-2 -1.1045696,0 -2.00000005,0.8954 -2.00000005,2 0,1.1046 0.89543045,2 2.00000005,2 1.1045696,0 2.0000005,-0.8954 2.0000005,-2 z m 44.9999995,-5 c 0,-1.1046 -0.895431,-2 -2,-2 -1.104569,0 -2,0.8954 -2,2 0,1.1045 0.895431,2 2,2 1.104569,0 2,-0.8955 2,-2 z m -5,0 c 0,-1.1046 -0.895431,-2 -2,-2 -1.104569,0 -2,0.8954 -2,2 0,1.1045 0.895431,2 2,2 1.104569,0 2,-0.8955 2,-2 z m -5,0 c 0,-1.1046 -0.895431,-2 -2,-2 -1.104569,0 -2,0.8954 -2,2 0,1.1045 0.895431,2 2,2 1.104569,0 2,-0.8955 2,-2 z m -5,0 c 0,-1.1046 -0.895431,-2 -2,-2 -1.10457,0 -2,0.8954 -2,2 0,1.1045 0.89543,2 2,2 1.104569,0 2,-0.8955 2,-2 z m -5,0 c 0,-1.1046 -0.895431,-2 -2,-2 -1.10457,0 -2,0.8954 -2,2 0,1.1045 0.89543,2 2,2 1.104569,0 2,-0.8955 2,-2 z m -5,0 c 0,-1.1046 -0.895431,-2 -2,-2 -1.10457,0 -2,0.8954 -2,2 0,1.1045 0.89543,2 2,2 1.104569,0 2,-0.8955 2,-2 z m -5,0 c 0,-1.1046 -0.895431,-2 -2,-2 -1.10457,0 -2,0.8954 -2,2 0,1.1045 0.89543,2 2,2 1.104569,0 2,-0.8955 2,-2 z m -5,0 c 0,-1.1046 -0.895431,-2 -2,-2 -1.10457,0 -2,0.8954 -2,2 0,1.1045 0.89543,2 2,2 1.104569,0 2,-0.8955 2,-2 z m -4.9999995,0 c 0,-1.1046 -0.895431,-2 -2.0000005,-2 -1.1045695,0 -2,0.8954 -2,2 0,1.1045 0.8954305,2 2,2 1.1045695,0 2.0000005,-0.8955 2.0000005,-2 z m -5,0 c 0,-1.1046 -0.8954309,-2 -2.0000005,-2 -1.1045696,0 -2.00000005,0.8954 -2.00000005,2 0,1.1045 0.89543045,2 2.00000005,2 1.1045696,0 2.0000005,-0.8955 2.0000005,-2 z m 44.9999995,-5 c 0,-1.1046 -0.895431,-2 -2,-2 -1.104569,0 -2,0.8954 -2,2 0,1.1046 0.895431,2 2,2 1.104569,0 2,-0.8954 2,-2 z m -5,0 c 0,-1.1046 -0.895431,-2 -2,-2 -1.104569,0 -2,0.8954 -2,2 0,1.1046 0.895431,2 2,2 1.104569,0 2,-0.8954 2,-2 z m -5,0 c 0,-1.1046 -0.895431,-2 -2,-2 -1.104569,0 -2,0.8954 -2,2 0,1.1046 0.895431,2 2,2 1.104569,0 2,-0.8954 2,-2 z m -5,0 c 0,-1.1046 -0.895431,-2 -2,-2 -1.10457,0 -2,0.8954 -2,2 0,1.1046 0.89543,2 2,2 1.104569,0 2,-0.8954 2,-2 z m -5,0 c 0,-1.1046 -0.895431,-2 -2,-2 -1.10457,0 -2,0.8954 -2,2 0,1.1046 0.89543,2 2,2 1.104569,0 2,-0.8954 2,-2 z m -5,0 c 0,-1.1046 -0.895431,-2 -2,-2 -1.10457,0 -2,0.8954 -2,2 0,1.1046 0.89543,2 2,2 1.104569,0 2,-0.8954 2,-2 z m -5,0 c 0,-1.1046 -0.895431,-2 -2,-2 -1.10457,0 -2,0.8954 -2,2 0,1.1046 0.89543,2 2,2 1.104569,0 2,-0.8954 2,-2 z m -5,0 c 0,-1.1046 -0.895431,-2 -2,-2 -1.10457,0 -2,0.8954 -2,2 0,1.1046 0.89543,2 2,2 1.104569,0 2,-0.8954 2,-2 z m -4.9999995,0 c 0,-1.1046 -0.895431,-2 -2.0000005,-2 -1.1045695,0 -2,0.8954 -2,2 0,1.1046 0.8954305,2 2,2 1.1045695,0 2.0000005,-0.8954 2.0000005,-2 z m -5,0 c 0,-1.1046 -0.8954309,-2 -2.0000005,-2 -1.1045696,0 -2.00000005,0.8954 -2.00000005,2 0,1.1046 0.89543045,2 2.00000005,2 1.1045696,0 2.0000005,-0.8954 2.0000005,-2 z m 44.9999995,-5 c 0,-1.1046 -0.895431,-2 -2,-2 -1.104569,0 -2,0.8954 -2,2 0,1.1046 0.895431,2 2,2 1.104569,0 2,-0.8954 2,-2 z m -5,0 c 0,-1.1046 -0.895431,-2 -2,-2 -1.104569,0 -2,0.8954 -2,2 0,1.1046 0.895431,2 2,2 1.104569,0 2,-0.8954 2,-2 z m -5,0 c 0,-1.1046 -0.895431,-2 -2,-2 -1.104569,0 -2,0.8954 -2,2 0,1.1046 0.895431,2 2,2 1.104569,0 2,-0.8954 2,-2 z m -5,0 c 0,-1.1046 -0.895431,-2 -2,-2 -1.10457,0 -2,0.8954 -2,2 0,1.1046 0.89543,2 2,2 1.104569,0 2,-0.8954 2,-2 z m -5,0 c 0,-1.1046 -0.895431,-2 -2,-2 -1.10457,0 -2,0.8954 -2,2 0,1.1046 0.89543,2 2,2 1.104569,0 2,-0.8954 2,-2 z m -5,0 c 0,-1.1046 -0.895431,-2 -2,-2 -1.10457,0 -2,0.8954 -2,2 0,1.1046 0.89543,2 2,2 1.104569,0 2,-0.8954 2,-2 z m -5,0 c 0,-1.1046 -0.895431,-2 -2,-2 -1.10457,0 -2,0.8954 -2,2 0,1.1046 0.89543,2 2,2 1.104569,0 2,-0.8954 2,-2 z m -5,0 c 0,-1.1046 -0.895431,-2 -2,-2 -1.10457,0 -2,0.8954 -2,2 0,1.1046 0.89543,2 2,2 1.104569,0 2,-0.8954 2,-2 z m -4.9999995,0 c 0,-1.1046 -0.895431,-2 -2.0000005,-2 -1.1045695,0 -2,0.8954 -2,2 0,1.1046 0.8954305,2 2,2 1.1045695,0 2.0000005,-0.8954 2.0000005,-2 z m -5,0 c 0,-1.1046 -0.8954309,-2 -2.0000005,-2 -1.1045696,0 -2.00000005,0.8954 -2.00000005,2 0,1.1046 0.89543045,2 2.00000005,2 1.1045696,0 2.0000005,-0.8954 2.0000005,-2 z m 44.9999995,-5 c 0,-1.1046 -0.895431,-2 -2,-2 -1.104569,0 -2,0.8954 -2,2 0,1.1046 0.895431,2 2,2 1.104569,0 2,-0.8954 2,-2 z m -5,0 c 0,-1.1046 -0.895431,-2 -2,-2 -1.104569,0 -2,0.8954 -2,2 0,1.1046 0.895431,2 2,2 1.104569,0 2,-0.8954 2,-2 z m -5,0 c 0,-1.1046 -0.895431,-2 -2,-2 -1.104569,0 -2,0.8954 -2,2 0,1.1046 0.895431,2 2,2 1.104569,0 2,-0.8954 2,-2 z m -5,0 c 0,-1.1046 -0.895431,-2 -2,-2 -1.10457,0 -2,0.8954 -2,2 0,1.1046 0.89543,2 2,2 1.104569,0 2,-0.8954 2,-2 z m -5,0 c 0,-1.1046 -0.895431,-2 -2,-2 -1.10457,0 -2,0.8954 -2,2 0,1.1046 0.89543,2 2,2 1.104569,0 2,-0.8954 2,-2 z m -5,0 c 0,-1.1046 -0.895431,-2 -2,-2 -1.10457,0 -2,0.8954 -2,2 0,1.1046 0.89543,2 2,2 1.104569,0 2,-0.8954 2,-2 z m -5,0 c 0,-1.1046 -0.895431,-2 -2,-2 -1.10457,0 -2,0.8954 -2,2 0,1.1046 0.89543,2 2,2 1.104569,0 2,-0.8954 2,-2 z m -5,0 c 0,-1.1046 -0.895431,-2 -2,-2 -1.10457,0 -2,0.8954 -2,2 0,1.1046 0.89543,2 2,2 1.104569,0 2,-0.8954 2,-2 z m -4.9999995,0 c 0,-1.1046 -0.895431,-2 -2.0000005,-2 -1.1045695,0 -2,0.8954 -2,2 0,1.1046 0.8954305,2 2,2 1.1045695,0 2.0000005,-0.8954 2.0000005,-2 z m -5,0 c 0,-1.1046 -0.8954309,-2 -2.0000005,-2 -1.1045696,0 -2.00000005,0.8954 -2.00000005,2 0,1.1046 0.89543045,2 2.00000005,2 1.1045696,0 2.0000005,-0.8954 2.0000005,-2 z m 44.9999995,-5 c 0,-1.1046 -0.895431,-2 -2,-2 -1.104569,0 -2,0.8954 -2,2 0,1.1046 0.895431,2 2,2 1.104569,0 2,-0.8954 2,-2 z m -5,0 c 0,-1.1046 -0.895431,-2 -2,-2 -1.104569,0 -2,0.8954 -2,2 0,1.1046 0.895431,2 2,2 1.104569,0 2,-0.8954 2,-2 z m -5,0 c 0,-1.1046 -0.895431,-2 -2,-2 -1.104569,0 -2,0.8954 -2,2 0,1.1046 0.895431,2 2,2 1.104569,0 2,-0.8954 2,-2 z m -5,0 c 0,-1.1046 -0.895431,-2 -2,-2 -1.10457,0 -2,0.8954 -2,2 0,1.1046 0.89543,2 2,2 1.104569,0 2,-0.8954 2,-2 z m -5,0 c 0,-1.1046 -0.895431,-2 -2,-2 -1.10457,0 -2,0.8954 -2,2 0,1.1046 0.89543,2 2,2 1.104569,0 2,-0.8954 2,-2 z m -5,0 c 0,-1.1046 -0.895431,-2 -2,-2 -1.10457,0 -2,0.8954 -2,2 0,1.1046 0.89543,2 2,2 1.104569,0 2,-0.8954 2,-2 z m -5,0 c 0,-1.1046 -0.895431,-2 -2,-2 -1.10457,0 -2,0.8954 -2,2 0,1.1046 0.89543,2 2,2 1.104569,0 2,-0.8954 2,-2 z m -5,0 c 0,-1.1046 -0.895431,-2 -2,-2 -1.10457,0 -2,0.8954 -2,2 0,1.1046 0.89543,2 2,2 1.104569,0 2,-0.8954 2,-2 z m -4.9999995,0 c 0,-1.1046 -0.895431,-2 -2.0000005,-2 -1.1045695,0 -2,0.8954 -2,2 0,1.1046 0.8954305,2 2,2 1.1045695,0 2.0000005,-0.8954 2.0000005,-2 z m -5,0 c 0,-1.1046 -0.8954309,-2 -2.0000005,-2 -1.1045696,0 -2.00000005,0.8954 -2.00000005,2 0,1.1046 0.89543045,2 2.00000005,2 1.1045696,0 2.0000005,-0.8954 2.0000005,-2 z M 0,1002.3622 l 50,0 0,50 -50,0 z"
         style="fill:#f4ead5;fill-opacity:1;stroke:none"
         id="path4033" />
      <path
         id="path2983"
         style="fill:#f4ead5;fill-opacity:1;stroke:none"
         d="m 49.5,999.86217 c 0,-1.10462 -0.895431,-2.00002 -2,-2.00002 -1.104569,0 -2,0.8954 -2,2.00002 0,1.10463 0.895431,2.00003 2,2.00003 1.104569,0 2,-0.8954 2,-2.00003 z m -5,0 c 0,-1.10462 -0.895431,-2.00002 -2,-2.00002 -1.104569,0 -2,0.8954 -2,2.00002 0,1.10463 0.895431,2.00003 2,2.00003 1.104569,0 2,-0.8954 2,-2.00003 z m -5,0 c 0,-1.10462 -0.895431,-2.00002 -2,-2.00002 -1.104569,0 -2,0.8954 -2,2.00002 0,1.10463 0.895431,2.00003 2,2.00003 1.104569,0 2,-0.8954 2,-2.00003 z m -5,0 c 0,-1.10462 -0.895431,-2.00002 -2,-2.00002 -1.10457,0 -2,0.8954 -2,2.00002 0,1.10463 0.89543,2.00003 2,2.00003 1.104569,0 2,-0.8954 2,-2.00003 z m -5,0 c 0,-1.10462 -0.895431,-2.00002 -2,-2.00002 -1.10457,0 -2,0.8954 -2,2.00002 0,1.10463 0.89543,2.00003 2,2.00003 1.104569,0 2,-0.8954 2,-2.00003 z m -5,0 c 0,-1.10462 -0.895431,-2.00002 -2,-2.00002 -1.10457,0 -2,0.8954 -2,2.00002 0,1.10463 0.89543,2.00003 2,2.00003 1.104569,0 2,-0.8954 2,-2.00003 z m -5,0 c 0,-1.10462 -0.895431,-2.00002 -2,-2.00002 -1.10457,0 -2,0.8954 -2,2.00002 0,1.10463 0.89543,2.00003 2,2.00003 1.104569,0 2,-0.8954 2,-2.00003 z m -5,0 c 0,-1.10462 -0.895431,-2.00002 -2,-2.00002 -1.10457,0 -2,0.8954 -2,2.00002 0,1.10463 0.89543,2.00003 2,2.00003 1.104569,0 2,-0.8954 2,-2.00003 z m -4.9999995,0 c 0,-1.10462 -0.895431,-2.00002 -2.0000005,-2.00002 -1.1045695,0 -2,0.8954 -2,2.00002 0,1.10463 0.8954305,2.00003 2,2.00003 1.1045695,0 2.0000005,-0.8954 2.0000005,-2.00003 z m -5,0 c 0,-1.10462 -0.8954309,-2.00002 -2.0000005,-2.00002 -1.1045696,0 -2.00000005,0.8954 -2.00000005,2.00002 0,1.10463 0.89543045,2.00003 2.00000005,2.00003 1.1045696,0 2.0000005,-0.8954 2.0000005,-2.00003 z M 49.5,994.86215 c 0,-1.1046 -0.895431,-2 -2,-2 -1.104569,0 -2,0.8954 -2,2 0,1.1046 0.895431,2 2,2 1.104569,0 2,-0.8954 2,-2 z m -5,0 c 0,-1.1046 -0.895431,-2 -2,-2 -1.104569,0 -2,0.8954 -2,2 0,1.1046 0.895431,2 2,2 1.104569,0 2,-0.8954 2,-2 z m -5,0 c 0,-1.1046 -0.895431,-2 -2,-2 -1.104569,0 -2,0.8954 -2,2 0,1.1046 0.895431,2 2,2 1.104569,0 2,-0.8954 2,-2 z m -5,0 c 0,-1.1046 -0.895431,-2 -2,-2 -1.10457,0 -2,0.8954 -2,2 0,1.1046 0.89543,2 2,2 1.104569,0 2,-0.8954 2,-2 z m -5,0 c 0,-1.1046 -0.895431,-2 -2,-2 -1.10457,0 -2,0.8954 -2,2 0,1.1046 0.89543,2 2,2 1.104569,0 2,-0.8954 2,-2 z m -5,0 c 0,-1.1046 -0.895431,-2 -2,-2 -1.10457,0 -2,0.8954 -2,2 0,1.1046 0.89543,2 2,2 1.104569,0 2,-0.8954 2,-2 z m -5,0 c 0,-1.1046 -0.895431,-2 -2,-2 -1.10457,0 -2,0.8954 -2,2 0,1.1046 0.89543,2 2,2 1.104569,0 2,-0.8954 2,-2 z m -5,0 c 0,-1.1046 -0.895431,-2 -2,-2 -1.10457,0 -2,0.8954 -2,2 0,1.1046 0.89543,2 2,2 1.104569,0 2,-0.8954 2,-2 z m -4.9999995,0 c 0,-1.1046 -0.895431,-2 -2.0000005,-2 -1.1045695,0 -2,0.8954 -2,2 0,1.1046 0.8954305,2 2,2 1.1045695,0 2.0000005,-0.8954 2.0000005,-2 z m -5,0 c 0,-1.1046 -0.8954309,-2 -2.0000005,-2 -1.1045696,0 -2.00000005,0.8954 -2.00000005,2 0,1.1046 0.89543045,2 2.00000005,2 1.1045696,0 2.0000005,-0.8954 2.0000005,-2 z m 44.9999995,-5 c 0,-1.1046 -0.895431,-2 -2,-2 -1.104569,0 -2,0.8954 -2,2 0,1.1046 0.895431,2 2,2 1.104569,0 2,-0.8954 2,-2 z m -5,0 c 0,-1.1046 -0.895431,-2 -2,-2 -1.104569,0 -2,0.8954 -2,2 0,1.1046 0.895431,2 2,2 1.104569,0 2,-0.8954 2,-2 z m -5,0 c 0,-1.1046 -0.895431,-2 -2,-2 -1.104569,0 -2,0.8954 -2,2 0,1.1046 0.895431,2 2,2 1.104569,0 2,-0.8954 2,-2 z m -5,0 c 0,-1.1046 -0.895431,-2 -2,-2 -1.10457,0 -2,0.8954 -2,2 0,1.1046 0.89543,2 2,2 1.104569,0 2,-0.8954 2,-2 z m -5,0 c 0,-1.1046 -0.895431,-2 -2,-2 -1.10457,0 -2,0.8954 -2,2 0,1.1046 0.89543,2 2,2 1.104569,0 2,-0.8954 2,-2 z m -5,0 c 0,-1.1046 -0.895431,-2 -2,-2 -1.10457,0 -2,0.8954 -2,2 0,1.1046 0.89543,2 2,2 1.104569,0 2,-0.8954 2,-2 z m -5,0 c 0,-1.1046 -0.895431,-2 -2,-2 -1.10457,0 -2,0.8954 -2,2 0,1.1046 0.89543,2 2,2 1.104569,0 2,-0.8954 2,-2 z m -5,0 c 0,-1.1046 -0.895431,-2 -2,-2 -1.10457,0 -2,0.8954 -2,2 0,1.1046 0.89543,2 2,2 1.104569,0 2,-0.8954 2,-2 z m -4.9999995,0 c 0,-1.1046 -0.895431,-2 -2.0000005,-2 -1.1045695,0 -2,0.8954 -2,2 0,1.1046 0.8954305,2 2,2 1.1045695,0 2.0000005,-0.8954 2.0000005,-2 z m -5,0 c 0,-1.1046 -0.8954309,-2 -2.0000005,-2 -1.1045696,0 -2.00000005,0.8954 -2.00000005,2 0,1.1046 0.89543045,2 2.00000005,2 1.1045696,0 2.0000005,-0.8954 2.0000005,-2 z m 44.9999995,-5 c 0,-1.1046 -0.895431,-2 -2,-2 -1.104569,0 -2,0.8954 -2,2 0,1.1046 0.895431,2 2,2 1.104569,0 2,-0.8954 2,-2 z m -5,0 c 0,-1.1046 -0.895431,-2 -2,-2 -1.104569,0 -2,0.8954 -2,2 0,1.1046 0.895431,2 2,2 1.104569,0 2,-0.8954 2,-2 z m -5,0 c 0,-1.1046 -0.895431,-2 -2,-2 -1.104569,0 -2,0.8954 -2,2 0,1.1046 0.895431,2 2,2 1.104569,0 2,-0.8954 2,-2 z m -5,0 c 0,-1.1046 -0.895431,-2 -2,-2 -1.10457,0 -2,0.8954 -2,2 0,1.1046 0.89543,2 2,2 1.104569,0 2,-0.8954 2,-2 z m -5,0 c 0,-1.1046 -0.895431,-2 -2,-2 -1.10457,0 -2,0.8954 -2,2 0,1.1046 0.89543,2 2,2 1.104569,0 2,-0.8954 2,-2 z m -5,0 c 0,-1.1046 -0.895431,-2 -2,-2 -1.10457,0 -2,0.8954 -2,2 0,1.1046 0.89543,2 2,2 1.104569,0 2,-0.8954 2,-2 z m -5,0 c 0,-1.1046 -0.895431,-2 -2,-2 -1.10457,0 -2,0.8954 -2,2 0,1.1046 0.89543,2 2,2 1.104569,0 2,-0.8954 2,-2 z m -5,0 c 0,-1.1046 -0.895431,-2 -2,-2 -1.10457,0 -2,0.8954 -2,2 0,1.1046 0.89543,2 2,2 1.104569,0 2,-0.8954 2,-2 z m -4.9999995,0 c 0,-1.1046 -0.895431,-2 -2.0000005,-2 -1.1045695,0 -2,0.8954 -2,2 0,1.1046 0.8954305,2 2,2 1.1045695,0 2.0000005,-0.8954 2.0000005,-2 z m -5,0 c 0,-1.1046 -0.8954309,-2 -2.0000005,-2 -1.1045696,0 -2.00000005,0.8954 -2.00000005,2 0,1.1046 0.89543045,2 2.00000005,2 1.1045696,0 2.0000005,-0.8954 2.0000005,-2 z m 44.9999995,-5 c 0,-1.1046 -0.895431,-2 -2,-2 -1.104569,0 -2,0.8954 -2,2 0,1.1046 0.895431,2 2,2 1.104569,0 2,-0.8954 2,-2 z m -5,0 c 0,-1.1046 -0.895431,-2 -2,-2 -1.104569,0 -2,0.8954 -2,2 0,1.1046 0.895431,2 2,2 1.104569,0 2,-0.8954 2,-2 z m -5,0 c 0,-1.1046 -0.895431,-2 -2,-2 -1.104569,0 -2,0.8954 -2,2 0,1.1046 0.895431,2 2,2 1.104569,0 2,-0.8954 2,-2 z m -5,0 c 0,-1.1046 -0.895431,-2 -2,-2 -1.10457,0 -2,0.8954 -2,2 0,1.1046 0.89543,2 2,2 1.104569,0 2,-0.8954 2,-2 z m -5,0 c 0,-1.1046 -0.895431,-2 -2,-2 -1.10457,0 -2,0.8954 -2,2 0,1.1046 0.89543,2 2,2 1.104569,0 2,-0.8954 2,-2 z m -5,0 c 0,-1.1046 -0.895431,-2 -2,-2 -1.10457,0 -2,0.8954 -2,2 0,1.1046 0.89543,2 2,2 1.104569,0 2,-0.8954 2,-2 z m -5,0 c 0,-1.1046 -0.895431,-2 -2,-2 -1.10457,0 -2,0.8954 -2,2 0,1.1046 0.89543,2 2,2 1.104569,0 2,-0.8954 2,-2 z m -5,0 c 0,-1.1046 -0.895431,-2 -2,-2 -1.10457,0 -2,0.8954 -2,2 0,1.1046 0.89543,2 2,2 1.104569,0 2,-0.8954 2,-2 z m -4.9999995,0 c 0,-1.1046 -0.895431,-2 -2.0000005,-2 -1.1045695,0 -2,0.8954 -2,2 0,1.1046 0.8954305,2 2,2 1.1045695,0 2.0000005,-0.8954 2.0000005,-2 z m -5,0 c 0,-1.1046 -0.8954309,-2 -2.0000005,-2 -1.1045696,0 -2.00000005,0.8954 -2.00000005,2 0,1.1046 0.89543045,2 2.00000005,2 1.1045696,0 2.0000005,-0.8954 2.0000005,-2 z m 44.9999995,-5 c 0,-1.1046 -0.895431,-2 -2,-2 -1.104569,0 -2,0.8954 -2,2 0,1.1045 0.895431,2 2,2 1.104569,0 2,-0.8955 2,-2 z m -5,0 c 0,-1.1046 -0.895431,-2 -2,-2 -1.104569,0 -2,0.8954 -2,2 0,1.1045 0.895431,2 2,2 1.104569,0 2,-0.8955 2,-2 z m -5,0 c 0,-1.1046 -0.895431,-2 -2,-2 -1.104569,0 -2,0.8954 -2,2 0,1.1045 0.895431,2 2,2 1.104569,0 2,-0.8955 2,-2 z m -5,0 c 0,-1.1046 -0.895431,-2 -2,-2 -1.10457,0 -2,0.8954 -2,2 0,1.1045 0.89543,2 2,2 1.104569,0 2,-0.8955 2,-2 z m -5,0 c 0,-1.1046 -0.895431,-2 -2,-2 -1.10457,0 -2,0.8954 -2,2 0,1.1045 0.89543,2 2,2 1.104569,0 2,-0.8955 2,-2 z m -5,0 c 0,-1.1046 -0.895431,-2 -2,-2 -1.10457,0 -2,0.8954 -2,2 0,1.1045 0.89543,2 2,2 1.104569,0 2,-0.8955 2,-2 z m -5,0 c 0,-1.1046 -0.895431,-2 -2,-2 -1.10457,0 -2,0.8954 -2,2 0,1.1045 0.89543,2 2,2 1.104569,0 2,-0.8955 2,-2 z m -5,0 c 0,-1.1046 -0.895431,-2 -2,-2 -1.10457,0 -2,0.8954 -2,2 0,1.1045 0.89543,2 2,2 1.104569,0 2,-0.8955 2,-2 z m -4.9999995,0 c 0,-1.1046 -0.895431,-2 -2.0000005,-2 -1.1045695,0 -2,0.8954 -2,2 0,1.1045 0.8954305,2 2,2 1.1045695,0 2.0000005,-0.8955 2.0000005,-2 z m -5,0 c 0,-1.1046 -0.8954309,-2 -2.0000005,-2 -1.1045696,0 -2.00000005,0.8954 -2.00000005,2 0,1.1045 0.89543045,2 2.00000005,2 1.1045696,0 2.0000005,-0.8955 2.0000005,-2 z m 44.9999995,-5 c 0,-1.1046 -0.895431,-2 -2,-2 -1.104569,0 -2,0.8954 -2,2 0,1.1046 0.895431,2 2,2 1.104569,0 2,-0.8954 2,-2 z m -5,0 c 0,-1.1046 -0.895431,-2 -2,-2 -1.104569,0 -2,0.8954 -2,2 0,1.1046 0.895431,2 2,2 1.104569,0 2,-0.8954 2,-2 z m -5,0 c 0,-1.1046 -0.895431,-2 -2,-2 -1.104569,0 -2,0.8954 -2,2 0,1.1046 0.895431,2 2,2 1.104569,0 2,-0.8954 2,-2 z m -5,0 c 0,-1.1046 -0.895431,-2 -2,-2 -1.10457,0 -2,0.8954 -2,2 0,1.1046 0.89543,2 2,2 1.104569,0 2,-0.8954 2,-2 z m -5,0 c 0,-1.1046 -0.895431,-2 -2,-2 -1.10457,0 -2,0.8954 -2,2 0,1.1046 0.89543,2 2,2 1.104569,0 2,-0.8954 2,-2 z m -5,0 c 0,-1.1046 -0.895431,-2 -2,-2 -1.10457,0 -2,0.8954 -2,2 0,1.1046 0.89543,2 2,2 1.104569,0 2,-0.8954 2,-2 z m -5,0 c 0,-1.1046 -0.895431,-2 -2,-2 -1.10457,0 -2,0.8954 -2,2 0,1.1046 0.89543,2 2,2 1.104569,0 2,-0.8954 2,-2 z m -5,0 c 0,-1.1046 -0.895431,-2 -2,-2 -1.10457,0 -2,0.8954 -2,2 0,1.1046 0.89543,2 2,2 1.104569,0 2,-0.8954 2,-2 z m -4.9999995,0 c 0,-1.1046 -0.895431,-2 -2.0000005,-2 -1.1045695,0 -2,0.8954 -2,2 0,1.1046 0.8954305,2 2,2 1.1045695,0 2.0000005,-0.8954 2.0000005,-2 z m -5,0 c 0,-1.1046 -0.8954309,-2 -2.0000005,-2 -1.1045696,0 -2.00000005,0.8954 -2.00000005,2 0,1.1046 0.89543045,2 2.00000005,2 1.1045696,0 2.0000005,-0.8954 2.0000005,-2 z m 44.9999995,-5 c 0,-1.1046 -0.895431,-2 -2,-2 -1.104569,0 -2,0.8954 -2,2 0,1.1046 0.895431,2 2,2 1.104569,0 2,-0.8954 2,-2 z m -5,0 c 0,-1.1046 -0.895431,-2 -2,-2 -1.104569,0 -2,0.8954 -2,2 0,1.1046 0.895431,2 2,2 1.104569,0 2,-0.8954 2,-2 z m -5,0 c 0,-1.1046 -0.895431,-2 -2,-2 -1.104569,0 -2,0.8954 -2,2 0,1.1046 0.895431,2 2,2 1.104569,0 2,-0.8954 2,-2 z m -5,0 c 0,-1.1046 -0.895431,-2 -2,-2 -1.10457,0 -2,0.8954 -2,2 0,1.1046 0.89543,2 2,2 1.104569,0 2,-0.8954 2,-2 z m -5,0 c 0,-1.1046 -0.895431,-2 -2,-2 -1.10457,0 -2,0.8954 -2,2 0,1.1046 0.89543,2 2,2 1.104569,0 2,-0.8954 2,-2 z m -5,0 c 0,-1.1046 -0.895431,-2 -2,-2 -1.10457,0 -2,0.8954 -2,2 0,1.1046 0.89543,2 2,2 1.104569,0 2,-0.8954 2,-2 z m -5,0 c 0,-1.1046 -0.895431,-2 -2,-2 -1.10457,0 -2,0.8954 -2,2 0,1.1046 0.89543,2 2,2 1.104569,0 2,-0.8954 2,-2 z m -5,0 c 0,-1.1046 -0.895431,-2 -2,-2 -1.10457,0 -2,0.8954 -2,2 0,1.1046 0.89543,2 2,2 1.104569,0 2,-0.8954 2,-2 z m -4.9999995,0 c 0,-1.1046 -0.895431,-2 -2.0000005,-2 -1.1045695,0 -2,0.8954 -2,2 0,1.1046 0.8954305,2 2,2 1.1045695,0 2.0000005,-0.8954 2.0000005,-2 z m -5,0 c 0,-1.1046 -0.8954309,-2 -2.0000005,-2 -1.1045696,0 -2.00000005,0.8954 -2.00000005,2 0,1.1046 0.89543045,2 2.00000005,2 1.1045696,0 2.0000005,-0.8954 2.0000005,-2 z m 44.9999995,-5 c 0,-1.1046 -0.895431,-2 -2,-2 -1.104569,0 -2,0.8954 -2,2 0,1.1046 0.895431,2 2,2 1.104569,0 2,-0.8954 2,-2 z m -5,0 c 0,-1.1046 -0.895431,-2 -2,-2 -1.104569,0 -2,0.8954 -2,2 0,1.1046 0.895431,2 2,2 1.104569,0 2,-0.8954 2,-2 z m -5,0 c 0,-1.1046 -0.895431,-2 -2,-2 -1.104569,0 -2,0.8954 -2,2 0,1.1046 0.895431,2 2,2 1.104569,0 2,-0.8954 2,-2 z m -5,0 c 0,-1.1046 -0.895431,-2 -2,-2 -1.10457,0 -2,0.8954 -2,2 0,1.1046 0.89543,2 2,2 1.104569,0 2,-0.8954 2,-2 z m -5,0 c 0,-1.1046 -0.895431,-2 -2,-2 -1.10457,0 -2,0.8954 -2,2 0,1.1046 0.89543,2 2,2 1.104569,0 2,-0.8954 2,-2 z m -5,0 c 0,-1.1046 -0.895431,-2 -2,-2 -1.10457,0 -2,0.8954 -2,2 0,1.1046 0.89543,2 2,2 1.104569,0 2,-0.8954 2,-2 z m -5,0 c 0,-1.1046 -0.895431,-2 -2,-2 -1.10457,0 -2,0.8954 -2,2 0,1.1046 0.89543,2 2,2 1.104569,0 2,-0.8954 2,-2 z m -5,0 c 0,-1.1046 -0.895431,-2 -2,-2 -1.10457,0 -2,0.8954 -2,2 0,1.1046 0.89543,2 2,2 1.104569,0 2,-0.8954 2,-2 z m -4.9999995,0 c 0,-1.1046 -0.895431,-2 -2.0000005,-2 -1.1045695,0 -2,0.8954 -2,2 0,1.1046 0.8954305,2 2,2 1.1045695,0 2.0000005,-0.8954 2.0000005,-2 z m -5,0 c 0,-1.1046 -0.8954309,-2 -2.0000005,-2 -1.1045696,0 -2.00000005,0.8954 -2.00000005,2 0,1.1046 0.89543045,2 2.00000005,2 1.1045696,0 2.0000005,-0.8954 2.0000005,-2 z m 44.9999995,-5 c 0,-1.1046 -0.895431,-2 -2,-2 -1.104569,0 -2,0.8954 -2,2 0,1.1046 0.895431,2 2,2 1.104569,0 2,-0.8954 2,-2 z m -5,0 c 0,-1.1046 -0.895431,-2 -2,-2 -1.104569,0 -2,0.8954 -2,2 0,1.1046 0.895431,2 2,2 1.104569,0 2,-0.8954 2,-2 z m -5,0 c 0,-1.1046 -0.895431,-2 -2,-2 -1.104569,0 -2,0.8954 -2,2 0,1.1046 0.895431,2 2,2 1.104569,0 2,-0.8954 2,-2 z m -5,0 c 0,-1.1046 -0.895431,-2 -2,-2 -1.10457,0 -2,0.8954 -2,2 0,1.1046 0.89543,2 2,2 1.104569,0 2,-0.8954 2,-2 z m -5,0 c 0,-1.1046 -0.895431,-2 -2,-2 -1.10457,0 -2,0.8954 -2,2 0,1.1046 0.89543,2 2,2 1.104569,0 2,-0.8954 2,-2 z m -5,0 c 0,-1.1046 -0.895431,-2 -2,-2 -1.10457,0 -2,0.8954 -2,2 0,1.1046 0.89543,2 2,2 1.104569,0 2,-0.8954 2,-2 z m -5,0 c 0,-1.1046 -0.895431,-2 -2,-2 -1.10457,0 -2,0.8954 -2,2 0,1.1046 0.89543,2 2,2 1.104569,0 2,-0.8954 2,-2 z m -5,0 c 0,-1.1046 -0.895431,-2 -2,-2 -1.10457,0 -2,0.8954 -2,2 0,1.1046 0.89543,2 2,2 1.104569,0 2,-0.8954 2,-2 z m -4.9999995,0 c 0,-1.1046 -0.895431,-2 -2.0000005,-2 -1.1045695,0 -2,0.8954 -2,2 0,1.1046 0.8954305,2 2,2 1.1045695,0 2.0000005,-0.8954 2.0000005,-2 z m -5,0 c 0,-1.1046 -0.8954309,-2 -2.0000005,-2 -1.1045696,0 -2.00000005,0.8954 -2.00000005,2 0,1.1046 0.89543045,2 2.00000005,2 1.1045696,0 2.0000005,-0.8954 2.0000005,-2 z M 0,952.36215 l 50,0 0,50.00005 -50,0 z"
         inkscape:connector-curvature="0" />
      <path
         inkscape:connector-curvature="0"
         d="m 99.499998,999.86215 c 0,-1.10462 -0.895429,-2.00002 -1.999998,-2.00002 -1.104569,0 -2,0.8954 -2,2.00002 0,1.10465 0.895431,2.00005 2,2.00005 1.104569,0 1.999998,-0.8954 1.999998,-2.00005 z m -4.999998,0 c 0,-1.10462 -0.895431,-2.00002 -2,-2.00002 -1.104569,0 -2,0.8954 -2,2.00002 0,1.10465 0.895431,2.00005 2,2.00005 1.104569,0 2,-0.8954 2,-2.00005 z m -5,0 c 0,-1.10462 -0.895431,-2.00002 -2,-2.00002 -1.104569,0 -2,0.8954 -2,2.00002 0,1.10465 0.895431,2.00005 2,2.00005 1.104569,0 2,-0.8954 2,-2.00005 z m -5,0 c 0,-1.10462 -0.895431,-2.00002 -2,-2.00002 -1.10457,0 -2,0.8954 -2,2.00002 0,1.10465 0.89543,2.00005 2,2.00005 1.104569,0 2,-0.8954 2,-2.00005 z m -5,0 c 0,-1.10462 -0.895431,-2.00002 -2,-2.00002 -1.10457,0 -2,0.8954 -2,2.00002 0,1.10465 0.89543,2.00005 2,2.00005 1.104569,0 2,-0.8954 2,-2.00005 z m -5,0 c 0,-1.10462 -0.895431,-2.00002 -2,-2.00002 -1.10457,0 -2,0.8954 -2,2.00002 0,1.10465 0.89543,2.00005 2,2.00005 1.104569,0 2,-0.8954 2,-2.00005 z m -5,0 c 0,-1.10462 -0.895431,-2.00002 -2,-2.00002 -1.10457,0 -2,0.8954 -2,2.00002 0,1.10465 0.89543,2.00005 2,2.00005 1.104569,0 2,-0.8954 2,-2.00005 z m -5,0 c 0,-1.10462 -0.895431,-2.00002 -2,-2.00002 -1.10457,0 -2,0.8954 -2,2.00002 0,1.10465 0.89543,2.00005 2,2.00005 1.104569,0 2,-0.8954 2,-2.00005 z m -5,0 c 0,-1.10462 -0.895431,-2.00002 -2,-2.00002 -1.10457,0 -2,0.8954 -2,2.00002 0,1.10465 0.89543,2.00005 2,2.00005 1.104569,0 2,-0.8954 2,-2.00005 z m -5,0 c 0,-1.10462 -0.895431,-2.00002 -2,-2.00002 -1.10457,0 -2,0.8954 -2,2.00002 0,1.10465 0.89543,2.00005 2,2.00005 1.104569,0 2,-0.8954 2,-2.00005 z m 44.999998,-5.00002 c 0,-1.1046 -0.895429,-2 -1.999998,-2 -1.104569,0 -2,0.8954 -2,2 0,1.1046 0.895431,2 2,2 1.104569,0 1.999998,-0.8954 1.999998,-2 z m -4.999998,0 c 0,-1.1046 -0.895431,-2 -2,-2 -1.104569,0 -2,0.8954 -2,2 0,1.1046 0.895431,2 2,2 1.104569,0 2,-0.8954 2,-2 z m -5,0 c 0,-1.1046 -0.895431,-2 -2,-2 -1.104569,0 -2,0.8954 -2,2 0,1.1046 0.895431,2 2,2 1.104569,0 2,-0.8954 2,-2 z m -5,0 c 0,-1.1046 -0.895431,-2 -2,-2 -1.10457,0 -2,0.8954 -2,2 0,1.1046 0.89543,2 2,2 1.104569,0 2,-0.8954 2,-2 z m -5,0 c 0,-1.1046 -0.895431,-2 -2,-2 -1.10457,0 -2,0.8954 -2,2 0,1.1046 0.89543,2 2,2 1.104569,0 2,-0.8954 2,-2 z m -5,0 c 0,-1.1046 -0.895431,-2 -2,-2 -1.10457,0 -2,0.8954 -2,2 0,1.1046 0.89543,2 2,2 1.104569,0 2,-0.8954 2,-2 z m -5,0 c 0,-1.1046 -0.895431,-2 -2,-2 -1.10457,0 -2,0.8954 -2,2 0,1.1046 0.89543,2 2,2 1.104569,0 2,-0.8954 2,-2 z m -5,0 c 0,-1.1046 -0.895431,-2 -2,-2 -1.10457,0 -2,0.8954 -2,2 0,1.1046 0.89543,2 2,2 1.104569,0 2,-0.8954 2,-2 z m -5,0 c 0,-1.1046 -0.895431,-2 -2,-2 -1.10457,0 -2,0.8954 -2,2 0,1.1046 0.89543,2 2,2 1.104569,0 2,-0.8954 2,-2 z m -5,0 c 0,-1.1046 -0.895431,-2 -2,-2 -1.10457,0 -2,0.8954 -2,2 0,1.1046 0.89543,2 2,2 1.104569,0 2,-0.8954 2,-2 z m 44.999998,-5 c 0,-1.1046 -0.895429,-2 -1.999998,-2 -1.104569,0 -2,0.8954 -2,2 0,1.1046 0.895431,2 2,2 1.104569,0 1.999998,-0.8954 1.999998,-2 z m -4.999998,0 c 0,-1.1046 -0.895431,-2 -2,-2 -1.104569,0 -2,0.8954 -2,2 0,1.1046 0.895431,2 2,2 1.104569,0 2,-0.8954 2,-2 z m -5,0 c 0,-1.1046 -0.895431,-2 -2,-2 -1.104569,0 -2,0.8954 -2,2 0,1.1046 0.895431,2 2,2 1.104569,0 2,-0.8954 2,-2 z m -5,0 c 0,-1.1046 -0.895431,-2 -2,-2 -1.10457,0 -2,0.8954 -2,2 0,1.1046 0.89543,2 2,2 1.104569,0 2,-0.8954 2,-2 z m -5,0 c 0,-1.1046 -0.895431,-2 -2,-2 -1.10457,0 -2,0.8954 -2,2 0,1.1046 0.89543,2 2,2 1.104569,0 2,-0.8954 2,-2 z m -5,0 c 0,-1.1046 -0.895431,-2 -2,-2 -1.10457,0 -2,0.8954 -2,2 0,1.1046 0.89543,2 2,2 1.104569,0 2,-0.8954 2,-2 z m -5,0 c 0,-1.1046 -0.895431,-2 -2,-2 -1.10457,0 -2,0.8954 -2,2 0,1.1046 0.89543,2 2,2 1.104569,0 2,-0.8954 2,-2 z m -5,0 c 0,-1.1046 -0.895431,-2 -2,-2 -1.10457,0 -2,0.8954 -2,2 0,1.1046 0.89543,2 2,2 1.104569,0 2,-0.8954 2,-2 z m -5,0 c 0,-1.1046 -0.895431,-2 -2,-2 -1.10457,0 -2,0.8954 -2,2 0,1.1046 0.89543,2 2,2 1.104569,0 2,-0.8954 2,-2 z m -5,0 c 0,-1.1046 -0.895431,-2 -2,-2 -1.10457,0 -2,0.8954 -2,2 0,1.1046 0.89543,2 2,2 1.104569,0 2,-0.8954 2,-2 z m 44.999998,-5 c 0,-1.1046 -0.895429,-2 -1.999998,-2 -1.104569,0 -2,0.8954 -2,2 0,1.1046 0.895431,2 2,2 1.104569,0 1.999998,-0.8954 1.999998,-2 z m -4.999998,0 c 0,-1.1046 -0.895431,-2 -2,-2 -1.104569,0 -2,0.8954 -2,2 0,1.1046 0.895431,2 2,2 1.104569,0 2,-0.8954 2,-2 z m -5,0 c 0,-1.1046 -0.895431,-2 -2,-2 -1.104569,0 -2,0.8954 -2,2 0,1.1046 0.895431,2 2,2 1.104569,0 2,-0.8954 2,-2 z m -5,0 c 0,-1.1046 -0.895431,-2 -2,-2 -1.10457,0 -2,0.8954 -2,2 0,1.1046 0.89543,2 2,2 1.104569,0 2,-0.8954 2,-2 z m -5,0 c 0,-1.1046 -0.895431,-2 -2,-2 -1.10457,0 -2,0.8954 -2,2 0,1.1046 0.89543,2 2,2 1.104569,0 2,-0.8954 2,-2 z m -5,0 c 0,-1.1046 -0.895431,-2 -2,-2 -1.10457,0 -2,0.8954 -2,2 0,1.1046 0.89543,2 2,2 1.104569,0 2,-0.8954 2,-2 z m -5,0 c 0,-1.1046 -0.895431,-2 -2,-2 -1.10457,0 -2,0.8954 -2,2 0,1.1046 0.89543,2 2,2 1.104569,0 2,-0.8954 2,-2 z m -5,0 c 0,-1.1046 -0.895431,-2 -2,-2 -1.10457,0 -2,0.8954 -2,2 0,1.1046 0.89543,2 2,2 1.104569,0 2,-0.8954 2,-2 z m -5,0 c 0,-1.1046 -0.895431,-2 -2,-2 -1.10457,0 -2,0.8954 -2,2 0,1.1046 0.89543,2 2,2 1.104569,0 2,-0.8954 2,-2 z m -5,0 c 0,-1.1046 -0.895431,-2 -2,-2 -1.10457,0 -2,0.8954 -2,2 0,1.1046 0.89543,2 2,2 1.104569,0 2,-0.8954 2,-2 z m 44.999998,-5 c 0,-1.1046 -0.895429,-2 -1.999998,-2 -1.104569,0 -2,0.8954 -2,2 0,1.1046 0.895431,2 2,2 1.104569,0 1.999998,-0.8954 1.999998,-2 z m -4.999998,0 c 0,-1.1046 -0.895431,-2 -2,-2 -1.104569,0 -2,0.8954 -2,2 0,1.1046 0.895431,2 2,2 1.104569,0 2,-0.8954 2,-2 z m -5,0 c 0,-1.1046 -0.895431,-2 -2,-2 -1.104569,0 -2,0.8954 -2,2 0,1.1046 0.895431,2 2,2 1.104569,0 2,-0.8954 2,-2 z m -5,0 c 0,-1.1046 -0.895431,-2 -2,-2 -1.10457,0 -2,0.8954 -2,2 0,1.1046 0.89543,2 2,2 1.104569,0 2,-0.8954 2,-2 z m -5,0 c 0,-1.1046 -0.895431,-2 -2,-2 -1.10457,0 -2,0.8954 -2,2 0,1.1046 0.89543,2 2,2 1.104569,0 2,-0.8954 2,-2 z m -5,0 c 0,-1.1046 -0.895431,-2 -2,-2 -1.10457,0 -2,0.8954 -2,2 0,1.1046 0.89543,2 2,2 1.104569,0 2,-0.8954 2,-2 z m -5,0 c 0,-1.1046 -0.895431,-2 -2,-2 -1.10457,0 -2,0.8954 -2,2 0,1.1046 0.89543,2 2,2 1.104569,0 2,-0.8954 2,-2 z m -5,0 c 0,-1.1046 -0.895431,-2 -2,-2 -1.10457,0 -2,0.8954 -2,2 0,1.1046 0.89543,2 2,2 1.104569,0 2,-0.8954 2,-2 z m -5,0 c 0,-1.1046 -0.895431,-2 -2,-2 -1.10457,0 -2,0.8954 -2,2 0,1.1046 0.89543,2 2,2 1.104569,0 2,-0.8954 2,-2 z m -5,0 c 0,-1.1046 -0.895431,-2 -2,-2 -1.10457,0 -2,0.8954 -2,2 0,1.1046 0.89543,2 2,2 1.104569,0 2,-0.8954 2,-2 z m 44.999998,-5 c 0,-1.1046 -0.895429,-2 -1.999998,-2 -1.104569,0 -2,0.8954 -2,2 0,1.1045 0.895431,2 2,2 1.104569,0 1.999998,-0.8955 1.999998,-2 z m -4.999998,0 c 0,-1.1046 -0.895431,-2 -2,-2 -1.104569,0 -2,0.8954 -2,2 0,1.1045 0.895431,2 2,2 1.104569,0 2,-0.8955 2,-2 z m -5,0 c 0,-1.1046 -0.895431,-2 -2,-2 -1.104569,0 -2,0.8954 -2,2 0,1.1045 0.895431,2 2,2 1.104569,0 2,-0.8955 2,-2 z m -5,0 c 0,-1.1046 -0.895431,-2 -2,-2 -1.10457,0 -2,0.8954 -2,2 0,1.1045 0.89543,2 2,2 1.104569,0 2,-0.8955 2,-2 z m -5,0 c 0,-1.1046 -0.895431,-2 -2,-2 -1.10457,0 -2,0.8954 -2,2 0,1.1045 0.89543,2 2,2 1.104569,0 2,-0.8955 2,-2 z m -5,0 c 0,-1.1046 -0.895431,-2 -2,-2 -1.10457,0 -2,0.8954 -2,2 0,1.1045 0.89543,2 2,2 1.104569,0 2,-0.8955 2,-2 z m -5,0 c 0,-1.1046 -0.895431,-2 -2,-2 -1.10457,0 -2,0.8954 -2,2 0,1.1045 0.89543,2 2,2 1.104569,0 2,-0.8955 2,-2 z m -5,0 c 0,-1.1046 -0.895431,-2 -2,-2 -1.10457,0 -2,0.8954 -2,2 0,1.1045 0.89543,2 2,2 1.104569,0 2,-0.8955 2,-2 z m -5,0 c 0,-1.1046 -0.895431,-2 -2,-2 -1.10457,0 -2,0.8954 -2,2 0,1.1045 0.89543,2 2,2 1.104569,0 2,-0.8955 2,-2 z m -5,0 c 0,-1.1046 -0.895431,-2 -2,-2 -1.10457,0 -2,0.8954 -2,2 0,1.1045 0.89543,2 2,2 1.104569,0 2,-0.8955 2,-2 z m 44.999998,-5 c 0,-1.1046 -0.895429,-2 -1.999998,-2 -1.104569,0 -2,0.8954 -2,2 0,1.1046 0.895431,2 2,2 1.104569,0 1.999998,-0.8954 1.999998,-2 z m -4.999998,0 c 0,-1.1046 -0.895431,-2 -2,-2 -1.104569,0 -2,0.8954 -2,2 0,1.1046 0.895431,2 2,2 1.104569,0 2,-0.8954 2,-2 z m -5,0 c 0,-1.1046 -0.895431,-2 -2,-2 -1.104569,0 -2,0.8954 -2,2 0,1.1046 0.895431,2 2,2 1.104569,0 2,-0.8954 2,-2 z m -5,0 c 0,-1.1046 -0.895431,-2 -2,-2 -1.10457,0 -2,0.8954 -2,2 0,1.1046 0.89543,2 2,2 1.104569,0 2,-0.8954 2,-2 z m -5,0 c 0,-1.1046 -0.895431,-2 -2,-2 -1.10457,0 -2,0.8954 -2,2 0,1.1046 0.89543,2 2,2 1.104569,0 2,-0.8954 2,-2 z m -5,0 c 0,-1.1046 -0.895431,-2 -2,-2 -1.10457,0 -2,0.8954 -2,2 0,1.1046 0.89543,2 2,2 1.104569,0 2,-0.8954 2,-2 z m -5,0 c 0,-1.1046 -0.895431,-2 -2,-2 -1.10457,0 -2,0.8954 -2,2 0,1.1046 0.89543,2 2,2 1.104569,0 2,-0.8954 2,-2 z m -5,0 c 0,-1.1046 -0.895431,-2 -2,-2 -1.10457,0 -2,0.8954 -2,2 0,1.1046 0.89543,2 2,2 1.104569,0 2,-0.8954 2,-2 z m -5,0 c 0,-1.1046 -0.895431,-2 -2,-2 -1.10457,0 -2,0.8954 -2,2 0,1.1046 0.89543,2 2,2 1.104569,0 2,-0.8954 2,-2 z m -5,0 c 0,-1.1046 -0.895431,-2 -2,-2 -1.10457,0 -2,0.8954 -2,2 0,1.1046 0.89543,2 2,2 1.104569,0 2,-0.8954 2,-2 z m 44.999998,-5 c 0,-1.1046 -0.895429,-2 -1.999998,-2 -1.104569,0 -2,0.8954 -2,2 0,1.1046 0.895431,2 2,2 1.104569,0 1.999998,-0.8954 1.999998,-2 z m -4.999998,0 c 0,-1.1046 -0.895431,-2 -2,-2 -1.104569,0 -2,0.8954 -2,2 0,1.1046 0.895431,2 2,2 1.104569,0 2,-0.8954 2,-2 z m -5,0 c 0,-1.1046 -0.895431,-2 -2,-2 -1.104569,0 -2,0.8954 -2,2 0,1.1046 0.895431,2 2,2 1.104569,0 2,-0.8954 2,-2 z m -5,0 c 0,-1.1046 -0.895431,-2 -2,-2 -1.10457,0 -2,0.8954 -2,2 0,1.1046 0.89543,2 2,2 1.104569,0 2,-0.8954 2,-2 z m -5,0 c 0,-1.1046 -0.895431,-2 -2,-2 -1.10457,0 -2,0.8954 -2,2 0,1.1046 0.89543,2 2,2 1.104569,0 2,-0.8954 2,-2 z m -5,0 c 0,-1.1046 -0.895431,-2 -2,-2 -1.10457,0 -2,0.8954 -2,2 0,1.1046 0.89543,2 2,2 1.104569,0 2,-0.8954 2,-2 z m -5,0 c 0,-1.1046 -0.895431,-2 -2,-2 -1.10457,0 -2,0.8954 -2,2 0,1.1046 0.89543,2 2,2 1.104569,0 2,-0.8954 2,-2 z m -5,0 c 0,-1.1046 -0.895431,-2 -2,-2 -1.10457,0 -2,0.8954 -2,2 0,1.1046 0.89543,2 2,2 1.104569,0 2,-0.8954 2,-2 z m -5,0 c 0,-1.1046 -0.895431,-2 -2,-2 -1.10457,0 -2,0.8954 -2,2 0,1.1046 0.89543,2 2,2 1.104569,0 2,-0.8954 2,-2 z m -5,0 c 0,-1.1046 -0.895431,-2 -2,-2 -1.10457,0 -2,0.8954 -2,2 0,1.1046 0.89543,2 2,2 1.104569,0 2,-0.8954 2,-2 z m 44.999998,-5 c 0,-1.1046 -0.895429,-2 -1.999998,-2 -1.104569,0 -2,0.8954 -2,2 0,1.1046 0.895431,2 2,2 1.104569,0 1.999998,-0.8954 1.999998,-2 z m -4.999998,0 c 0,-1.1046 -0.895431,-2 -2,-2 -1.104569,0 -2,0.8954 -2,2 0,1.1046 0.895431,2 2,2 1.104569,0 2,-0.8954 2,-2 z m -5,0 c 0,-1.1046 -0.895431,-2 -2,-2 -1.104569,0 -2,0.8954 -2,2 0,1.1046 0.895431,2 2,2 1.104569,0 2,-0.8954 2,-2 z m -5,0 c 0,-1.1046 -0.895431,-2 -2,-2 -1.10457,0 -2,0.8954 -2,2 0,1.1046 0.89543,2 2,2 1.104569,0 2,-0.8954 2,-2 z m -5,0 c 0,-1.1046 -0.895431,-2 -2,-2 -1.10457,0 -2,0.8954 -2,2 0,1.1046 0.89543,2 2,2 1.104569,0 2,-0.8954 2,-2 z m -5,0 c 0,-1.1046 -0.895431,-2 -2,-2 -1.10457,0 -2,0.8954 -2,2 0,1.1046 0.89543,2 2,2 1.104569,0 2,-0.8954 2,-2 z m -5,0 c 0,-1.1046 -0.895431,-2 -2,-2 -1.10457,0 -2,0.8954 -2,2 0,1.1046 0.89543,2 2,2 1.104569,0 2,-0.8954 2,-2 z m -5,0 c 0,-1.1046 -0.895431,-2 -2,-2 -1.10457,0 -2,0.8954 -2,2 0,1.1046 0.89543,2 2,2 1.104569,0 2,-0.8954 2,-2 z m -5,0 c 0,-1.1046 -0.895431,-2 -2,-2 -1.10457,0 -2,0.8954 -2,2 0,1.1046 0.89543,2 2,2 1.104569,0 2,-0.8954 2,-2 z m -5,0 c 0,-1.1046 -0.895431,-2 -2,-2 -1.10457,0 -2,0.8954 -2,2 0,1.1046 0.89543,2 2,2 1.104569,0 2,-0.8954 2,-2 z m 44.999998,-5 c 0,-1.1046 -0.895429,-2 -1.999998,-2 -1.104569,0 -2,0.8954 -2,2 0,1.1046 0.895431,2 2,2 1.104569,0 1.999998,-0.8954 1.999998,-2 z m -4.999998,0 c 0,-1.1046 -0.895431,-2 -2,-2 -1.104569,0 -2,0.8954 -2,2 0,1.1046 0.895431,2 2,2 1.104569,0 2,-0.8954 2,-2 z m -5,0 c 0,-1.1046 -0.895431,-2 -2,-2 -1.104569,0 -2,0.8954 -2,2 0,1.1046 0.895431,2 2,2 1.104569,0 2,-0.8954 2,-2 z m -5,0 c 0,-1.1046 -0.895431,-2 -2,-2 -1.10457,0 -2,0.8954 -2,2 0,1.1046 0.89543,2 2,2 1.104569,0 2,-0.8954 2,-2 z m -5,0 c 0,-1.1046 -0.895431,-2 -2,-2 -1.10457,0 -2,0.8954 -2,2 0,1.1046 0.89543,2 2,2 1.104569,0 2,-0.8954 2,-2 z m -5,0 c 0,-1.1046 -0.895431,-2 -2,-2 -1.10457,0 -2,0.8954 -2,2 0,1.1046 0.89543,2 2,2 1.104569,0 2,-0.8954 2,-2 z m -5,0 c 0,-1.1046 -0.895431,-2 -2,-2 -1.10457,0 -2,0.8954 -2,2 0,1.1046 0.89543,2 2,2 1.104569,0 2,-0.8954 2,-2 z m -5,0 c 0,-1.1046 -0.895431,-2 -2,-2 -1.10457,0 -2,0.8954 -2,2 0,1.1046 0.89543,2 2,2 1.104569,0 2,-0.8954 2,-2 z m -5,0 c 0,-1.1046 -0.895431,-2 -2,-2 -1.10457,0 -2,0.8954 -2,2 0,1.1046 0.89543,2 2,2 1.104569,0 2,-0.8954 2,-2 z m -5,0 c 0,-1.1046 -0.895431,-2 -2,-2 -1.10457,0 -2,0.8954 -2,2 0,1.1046 0.89543,2 2,2 1.104569,0 2,-0.8954 2,-2 z m -4.5,-2.5 49.999998,0 0,50.00007 -49.999998,0 z"
         style="fill:#f4ead5;fill-opacity:1;stroke:none"
         id="path2985" />
      <path
         id="path2987"
         style="fill:#f4ead5;fill-opacity:1;stroke:none"
         d="m 99.499998,1049.8621 c 0,-1.1046 -0.895429,-2 -1.999998,-2 -1.104569,0 -2,0.8954 -2,2 0,1.1047 0.895431,2.0001 2,2.0001 1.104569,0 1.999998,-0.8954 1.999998,-2.0001 z m -4.999998,0 c 0,-1.1046 -0.895431,-2 -2,-2 -1.104569,0 -2,0.8954 -2,2 0,1.1047 0.895431,2.0001 2,2.0001 1.104569,0 2,-0.8954 2,-2.0001 z m -5,0 c 0,-1.1046 -0.895431,-2 -2,-2 -1.104569,0 -2,0.8954 -2,2 0,1.1047 0.895431,2.0001 2,2.0001 1.104569,0 2,-0.8954 2,-2.0001 z m -5,0 c 0,-1.1046 -0.895431,-2 -2,-2 -1.10457,0 -2,0.8954 -2,2 0,1.1047 0.89543,2.0001 2,2.0001 1.104569,0 2,-0.8954 2,-2.0001 z m -5,0 c 0,-1.1046 -0.895431,-2 -2,-2 -1.10457,0 -2,0.8954 -2,2 0,1.1047 0.89543,2.0001 2,2.0001 1.104569,0 2,-0.8954 2,-2.0001 z m -5,0 c 0,-1.1046 -0.895431,-2 -2,-2 -1.10457,0 -2,0.8954 -2,2 0,1.1047 0.89543,2.0001 2,2.0001 1.104569,0 2,-0.8954 2,-2.0001 z m -5,0 c 0,-1.1046 -0.895431,-2 -2,-2 -1.10457,0 -2,0.8954 -2,2 0,1.1047 0.89543,2.0001 2,2.0001 1.104569,0 2,-0.8954 2,-2.0001 z m -5,0 c 0,-1.1046 -0.895431,-2 -2,-2 -1.10457,0 -2,0.8954 -2,2 0,1.1047 0.89543,2.0001 2,2.0001 1.104569,0 2,-0.8954 2,-2.0001 z m -5,0 c 0,-1.1046 -0.895431,-2 -2,-2 -1.10457,0 -2,0.8954 -2,2 0,1.1047 0.89543,2.0001 2,2.0001 1.104569,0 2,-0.8954 2,-2.0001 z m -5,0 c 0,-1.1046 -0.895431,-2 -2,-2 -1.10457,0 -2,0.8954 -2,2 0,1.1047 0.89543,2.0001 2,2.0001 1.104569,0 2,-0.8954 2,-2.0001 z m 44.999998,-5 c 0,-1.1046 -0.895429,-2 -1.999998,-2 -1.104569,0 -2,0.8954 -2,2 0,1.1046 0.895431,2 2,2 1.104569,0 1.999998,-0.8954 1.999998,-2 z m -4.999998,0 c 0,-1.1046 -0.895431,-2 -2,-2 -1.104569,0 -2,0.8954 -2,2 0,1.1046 0.895431,2 2,2 1.104569,0 2,-0.8954 2,-2 z m -5,0 c 0,-1.1046 -0.895431,-2 -2,-2 -1.104569,0 -2,0.8954 -2,2 0,1.1046 0.895431,2 2,2 1.104569,0 2,-0.8954 2,-2 z m -5,0 c 0,-1.1046 -0.895431,-2 -2,-2 -1.10457,0 -2,0.8954 -2,2 0,1.1046 0.89543,2 2,2 1.104569,0 2,-0.8954 2,-2 z m -5,0 c 0,-1.1046 -0.895431,-2 -2,-2 -1.10457,0 -2,0.8954 -2,2 0,1.1046 0.89543,2 2,2 1.104569,0 2,-0.8954 2,-2 z m -5,0 c 0,-1.1046 -0.895431,-2 -2,-2 -1.10457,0 -2,0.8954 -2,2 0,1.1046 0.89543,2 2,2 1.104569,0 2,-0.8954 2,-2 z m -5,0 c 0,-1.1046 -0.895431,-2 -2,-2 -1.10457,0 -2,0.8954 -2,2 0,1.1046 0.89543,2 2,2 1.104569,0 2,-0.8954 2,-2 z m -5,0 c 0,-1.1046 -0.895431,-2 -2,-2 -1.10457,0 -2,0.8954 -2,2 0,1.1046 0.89543,2 2,2 1.104569,0 2,-0.8954 2,-2 z m -5,0 c 0,-1.1046 -0.895431,-2 -2,-2 -1.10457,0 -2,0.8954 -2,2 0,1.1046 0.89543,2 2,2 1.104569,0 2,-0.8954 2,-2 z m -5,0 c 0,-1.1046 -0.895431,-2 -2,-2 -1.10457,0 -2,0.8954 -2,2 0,1.1046 0.89543,2 2,2 1.104569,0 2,-0.8954 2,-2 z m 44.999998,-5 c 0,-1.1046 -0.895429,-2 -1.999998,-2 -1.104569,0 -2,0.8954 -2,2 0,1.1046 0.895431,2 2,2 1.104569,0 1.999998,-0.8954 1.999998,-2 z m -4.999998,0 c 0,-1.1046 -0.895431,-2 -2,-2 -1.104569,0 -2,0.8954 -2,2 0,1.1046 0.895431,2 2,2 1.104569,0 2,-0.8954 2,-2 z m -5,0 c 0,-1.1046 -0.895431,-2 -2,-2 -1.104569,0 -2,0.8954 -2,2 0,1.1046 0.895431,2 2,2 1.104569,0 2,-0.8954 2,-2 z m -5,0 c 0,-1.1046 -0.895431,-2 -2,-2 -1.10457,0 -2,0.8954 -2,2 0,1.1046 0.89543,2 2,2 1.104569,0 2,-0.8954 2,-2 z m -5,0 c 0,-1.1046 -0.895431,-2 -2,-2 -1.10457,0 -2,0.8954 -2,2 0,1.1046 0.89543,2 2,2 1.104569,0 2,-0.8954 2,-2 z m -5,0 c 0,-1.1046 -0.895431,-2 -2,-2 -1.10457,0 -2,0.8954 -2,2 0,1.1046 0.89543,2 2,2 1.104569,0 2,-0.8954 2,-2 z m -5,0 c 0,-1.1046 -0.895431,-2 -2,-2 -1.10457,0 -2,0.8954 -2,2 0,1.1046 0.89543,2 2,2 1.104569,0 2,-0.8954 2,-2 z m -5,0 c 0,-1.1046 -0.895431,-2 -2,-2 -1.10457,0 -2,0.8954 -2,2 0,1.1046 0.89543,2 2,2 1.104569,0 2,-0.8954 2,-2 z m -5,0 c 0,-1.1046 -0.895431,-2 -2,-2 -1.10457,0 -2,0.8954 -2,2 0,1.1046 0.89543,2 2,2 1.104569,0 2,-0.8954 2,-2 z m -5,0 c 0,-1.1046 -0.895431,-2 -2,-2 -1.10457,0 -2,0.8954 -2,2 0,1.1046 0.89543,2 2,2 1.104569,0 2,-0.8954 2,-2 z m 44.999998,-5 c 0,-1.1046 -0.895429,-2 -1.999998,-2 -1.104569,0 -2,0.8954 -2,2 0,1.1046 0.895431,2 2,2 1.104569,0 1.999998,-0.8954 1.999998,-2 z m -4.999998,0 c 0,-1.1046 -0.895431,-2 -2,-2 -1.104569,0 -2,0.8954 -2,2 0,1.1046 0.895431,2 2,2 1.104569,0 2,-0.8954 2,-2 z m -5,0 c 0,-1.1046 -0.895431,-2 -2,-2 -1.104569,0 -2,0.8954 -2,2 0,1.1046 0.895431,2 2,2 1.104569,0 2,-0.8954 2,-2 z m -5,0 c 0,-1.1046 -0.895431,-2 -2,-2 -1.10457,0 -2,0.8954 -2,2 0,1.1046 0.89543,2 2,2 1.104569,0 2,-0.8954 2,-2 z m -5,0 c 0,-1.1046 -0.895431,-2 -2,-2 -1.10457,0 -2,0.8954 -2,2 0,1.1046 0.89543,2 2,2 1.104569,0 2,-0.8954 2,-2 z m -5,0 c 0,-1.1046 -0.895431,-2 -2,-2 -1.10457,0 -2,0.8954 -2,2 0,1.1046 0.89543,2 2,2 1.104569,0 2,-0.8954 2,-2 z m -5,0 c 0,-1.1046 -0.895431,-2 -2,-2 -1.10457,0 -2,0.8954 -2,2 0,1.1046 0.89543,2 2,2 1.104569,0 2,-0.8954 2,-2 z m -5,0 c 0,-1.1046 -0.895431,-2 -2,-2 -1.10457,0 -2,0.8954 -2,2 0,1.1046 0.89543,2 2,2 1.104569,0 2,-0.8954 2,-2 z m -5,0 c 0,-1.1046 -0.895431,-2 -2,-2 -1.10457,0 -2,0.8954 -2,2 0,1.1046 0.89543,2 2,2 1.104569,0 2,-0.8954 2,-2 z m -5,0 c 0,-1.1046 -0.895431,-2 -2,-2 -1.10457,0 -2,0.8954 -2,2 0,1.1046 0.89543,2 2,2 1.104569,0 2,-0.8954 2,-2 z m 44.999998,-5 c 0,-1.1046 -0.895429,-2 -1.999998,-2 -1.104569,0 -2,0.8954 -2,2 0,1.1046 0.895431,2 2,2 1.104569,0 1.999998,-0.8954 1.999998,-2 z m -4.999998,0 c 0,-1.1046 -0.895431,-2 -2,-2 -1.104569,0 -2,0.8954 -2,2 0,1.1046 0.895431,2 2,2 1.104569,0 2,-0.8954 2,-2 z m -5,0 c 0,-1.1046 -0.895431,-2 -2,-2 -1.104569,0 -2,0.8954 -2,2 0,1.1046 0.895431,2 2,2 1.104569,0 2,-0.8954 2,-2 z m -5,0 c 0,-1.1046 -0.895431,-2 -2,-2 -1.10457,0 -2,0.8954 -2,2 0,1.1046 0.89543,2 2,2 1.104569,0 2,-0.8954 2,-2 z m -5,0 c 0,-1.1046 -0.895431,-2 -2,-2 -1.10457,0 -2,0.8954 -2,2 0,1.1046 0.89543,2 2,2 1.104569,0 2,-0.8954 2,-2 z m -5,0 c 0,-1.1046 -0.895431,-2 -2,-2 -1.10457,0 -2,0.8954 -2,2 0,1.1046 0.89543,2 2,2 1.104569,0 2,-0.8954 2,-2 z m -5,0 c 0,-1.1046 -0.895431,-2 -2,-2 -1.10457,0 -2,0.8954 -2,2 0,1.1046 0.89543,2 2,2 1.104569,0 2,-0.8954 2,-2 z m -5,0 c 0,-1.1046 -0.895431,-2 -2,-2 -1.10457,0 -2,0.8954 -2,2 0,1.1046 0.89543,2 2,2 1.104569,0 2,-0.8954 2,-2 z m -5,0 c 0,-1.1046 -0.895431,-2 -2,-2 -1.10457,0 -2,0.8954 -2,2 0,1.1046 0.89543,2 2,2 1.104569,0 2,-0.8954 2,-2 z m -5,0 c 0,-1.1046 -0.895431,-2 -2,-2 -1.10457,0 -2,0.8954 -2,2 0,1.1046 0.89543,2 2,2 1.104569,0 2,-0.8954 2,-2 z m 44.999998,-5 c 0,-1.1046 -0.895429,-2 -1.999998,-2 -1.104569,0 -2,0.8954 -2,2 0,1.1045 0.895431,2 2,2 1.104569,0 1.999998,-0.8955 1.999998,-2 z m -4.999998,0 c 0,-1.1046 -0.895431,-2 -2,-2 -1.104569,0 -2,0.8954 -2,2 0,1.1045 0.895431,2 2,2 1.104569,0 2,-0.8955 2,-2 z m -5,0 c 0,-1.1046 -0.895431,-2 -2,-2 -1.104569,0 -2,0.8954 -2,2 0,1.1045 0.895431,2 2,2 1.104569,0 2,-0.8955 2,-2 z m -5,0 c 0,-1.1046 -0.895431,-2 -2,-2 -1.10457,0 -2,0.8954 -2,2 0,1.1045 0.89543,2 2,2 1.104569,0 2,-0.8955 2,-2 z m -5,0 c 0,-1.1046 -0.895431,-2 -2,-2 -1.10457,0 -2,0.8954 -2,2 0,1.1045 0.89543,2 2,2 1.104569,0 2,-0.8955 2,-2 z m -5,0 c 0,-1.1046 -0.895431,-2 -2,-2 -1.10457,0 -2,0.8954 -2,2 0,1.1045 0.89543,2 2,2 1.104569,0 2,-0.8955 2,-2 z m -5,0 c 0,-1.1046 -0.895431,-2 -2,-2 -1.10457,0 -2,0.8954 -2,2 0,1.1045 0.89543,2 2,2 1.104569,0 2,-0.8955 2,-2 z m -5,0 c 0,-1.1046 -0.895431,-2 -2,-2 -1.10457,0 -2,0.8954 -2,2 0,1.1045 0.89543,2 2,2 1.104569,0 2,-0.8955 2,-2 z m -5,0 c 0,-1.1046 -0.895431,-2 -2,-2 -1.10457,0 -2,0.8954 -2,2 0,1.1045 0.89543,2 2,2 1.104569,0 2,-0.8955 2,-2 z m -5,0 c 0,-1.1046 -0.895431,-2 -2,-2 -1.10457,0 -2,0.8954 -2,2 0,1.1045 0.89543,2 2,2 1.104569,0 2,-0.8955 2,-2 z m 44.999998,-5 c 0,-1.1046 -0.895429,-2 -1.999998,-2 -1.104569,0 -2,0.8954 -2,2 0,1.1046 0.895431,2 2,2 1.104569,0 1.999998,-0.8954 1.999998,-2 z m -4.999998,0 c 0,-1.1046 -0.895431,-2 -2,-2 -1.104569,0 -2,0.8954 -2,2 0,1.1046 0.895431,2 2,2 1.104569,0 2,-0.8954 2,-2 z m -5,0 c 0,-1.1046 -0.895431,-2 -2,-2 -1.104569,0 -2,0.8954 -2,2 0,1.1046 0.895431,2 2,2 1.104569,0 2,-0.8954 2,-2 z m -5,0 c 0,-1.1046 -0.895431,-2 -2,-2 -1.10457,0 -2,0.8954 -2,2 0,1.1046 0.89543,2 2,2 1.104569,0 2,-0.8954 2,-2 z m -5,0 c 0,-1.1046 -0.895431,-2 -2,-2 -1.10457,0 -2,0.8954 -2,2 0,1.1046 0.89543,2 2,2 1.104569,0 2,-0.8954 2,-2 z m -5,0 c 0,-1.1046 -0.895431,-2 -2,-2 -1.10457,0 -2,0.8954 -2,2 0,1.1046 0.89543,2 2,2 1.104569,0 2,-0.8954 2,-2 z m -5,0 c 0,-1.1046 -0.895431,-2 -2,-2 -1.10457,0 -2,0.8954 -2,2 0,1.1046 0.89543,2 2,2 1.104569,0 2,-0.8954 2,-2 z m -5,0 c 0,-1.1046 -0.895431,-2 -2,-2 -1.10457,0 -2,0.8954 -2,2 0,1.1046 0.89543,2 2,2 1.104569,0 2,-0.8954 2,-2 z m -5,0 c 0,-1.1046 -0.895431,-2 -2,-2 -1.10457,0 -2,0.8954 -2,2 0,1.1046 0.89543,2 2,2 1.104569,0 2,-0.8954 2,-2 z m -5,0 c 0,-1.1046 -0.895431,-2 -2,-2 -1.10457,0 -2,0.8954 -2,2 0,1.1046 0.89543,2 2,2 1.104569,0 2,-0.8954 2,-2 z m 44.999998,-5 c 0,-1.1046 -0.895429,-2 -1.999998,-2 -1.104569,0 -2,0.8954 -2,2 0,1.1046 0.895431,2 2,2 1.104569,0 1.999998,-0.8954 1.999998,-2 z m -4.999998,0 c 0,-1.1046 -0.895431,-2 -2,-2 -1.104569,0 -2,0.8954 -2,2 0,1.1046 0.895431,2 2,2 1.104569,0 2,-0.8954 2,-2 z m -5,0 c 0,-1.1046 -0.895431,-2 -2,-2 -1.104569,0 -2,0.8954 -2,2 0,1.1046 0.895431,2 2,2 1.104569,0 2,-0.8954 2,-2 z m -5,0 c 0,-1.1046 -0.895431,-2 -2,-2 -1.10457,0 -2,0.8954 -2,2 0,1.1046 0.89543,2 2,2 1.104569,0 2,-0.8954 2,-2 z m -5,0 c 0,-1.1046 -0.895431,-2 -2,-2 -1.10457,0 -2,0.8954 -2,2 0,1.1046 0.89543,2 2,2 1.104569,0 2,-0.8954 2,-2 z m -5,0 c 0,-1.1046 -0.895431,-2 -2,-2 -1.10457,0 -2,0.8954 -2,2 0,1.1046 0.89543,2 2,2 1.104569,0 2,-0.8954 2,-2 z m -5,0 c 0,-1.1046 -0.895431,-2 -2,-2 -1.10457,0 -2,0.8954 -2,2 0,1.1046 0.89543,2 2,2 1.104569,0 2,-0.8954 2,-2 z m -5,0 c 0,-1.1046 -0.895431,-2 -2,-2 -1.10457,0 -2,0.8954 -2,2 0,1.1046 0.89543,2 2,2 1.104569,0 2,-0.8954 2,-2 z m -5,0 c 0,-1.1046 -0.895431,-2 -2,-2 -1.10457,0 -2,0.8954 -2,2 0,1.1046 0.89543,2 2,2 1.104569,0 2,-0.8954 2,-2 z m -5,0 c 0,-1.1046 -0.895431,-2 -2,-2 -1.10457,0 -2,0.8954 -2,2 0,1.1046 0.89543,2 2,2 1.104569,0 2,-0.8954 2,-2 z m 44.999998,-5 c 0,-1.1046 -0.895429,-2 -1.999998,-2 -1.104569,0 -2,0.8954 -2,2 0,1.1046 0.895431,2 2,2 1.104569,0 1.999998,-0.8954 1.999998,-2 z m -4.999998,0 c 0,-1.1046 -0.895431,-2 -2,-2 -1.104569,0 -2,0.8954 -2,2 0,1.1046 0.895431,2 2,2 1.104569,0 2,-0.8954 2,-2 z m -5,0 c 0,-1.1046 -0.895431,-2 -2,-2 -1.104569,0 -2,0.8954 -2,2 0,1.1046 0.895431,2 2,2 1.104569,0 2,-0.8954 2,-2 z m -5,0 c 0,-1.1046 -0.895431,-2 -2,-2 -1.10457,0 -2,0.8954 -2,2 0,1.1046 0.89543,2 2,2 1.104569,0 2,-0.8954 2,-2 z m -5,0 c 0,-1.1046 -0.895431,-2 -2,-2 -1.10457,0 -2,0.8954 -2,2 0,1.1046 0.89543,2 2,2 1.104569,0 2,-0.8954 2,-2 z m -5,0 c 0,-1.1046 -0.895431,-2 -2,-2 -1.10457,0 -2,0.8954 -2,2 0,1.1046 0.89543,2 2,2 1.104569,0 2,-0.8954 2,-2 z m -5,0 c 0,-1.1046 -0.895431,-2 -2,-2 -1.10457,0 -2,0.8954 -2,2 0,1.1046 0.89543,2 2,2 1.104569,0 2,-0.8954 2,-2 z m -5,0 c 0,-1.1046 -0.895431,-2 -2,-2 -1.10457,0 -2,0.8954 -2,2 0,1.1046 0.89543,2 2,2 1.104569,0 2,-0.8954 2,-2 z m -5,0 c 0,-1.1046 -0.895431,-2 -2,-2 -1.10457,0 -2,0.8954 -2,2 0,1.1046 0.89543,2 2,2 1.104569,0 2,-0.8954 2,-2 z m -5,0 c 0,-1.1046 -0.895431,-2 -2,-2 -1.10457,0 -2,0.8954 -2,2 0,1.1046 0.89543,2 2,2 1.104569,0 2,-0.8954 2,-2 z m 44.999998,-5 c 0,-1.1046 -0.895429,-2 -1.999998,-2 -1.104569,0 -2,0.8954 -2,2 0,1.1046 0.895431,2 2,2 1.104569,0 1.999998,-0.8954 1.999998,-2 z m -4.999998,0 c 0,-1.1046 -0.895431,-2 -2,-2 -1.104569,0 -2,0.8954 -2,2 0,1.1046 0.895431,2 2,2 1.104569,0 2,-0.8954 2,-2 z m -5,0 c 0,-1.1046 -0.895431,-2 -2,-2 -1.104569,0 -2,0.8954 -2,2 0,1.1046 0.895431,2 2,2 1.104569,0 2,-0.8954 2,-2 z m -5,0 c 0,-1.1046 -0.895431,-2 -2,-2 -1.10457,0 -2,0.8954 -2,2 0,1.1046 0.89543,2 2,2 1.104569,0 2,-0.8954 2,-2 z m -5,0 c 0,-1.1046 -0.895431,-2 -2,-2 -1.10457,0 -2,0.8954 -2,2 0,1.1046 0.89543,2 2,2 1.104569,0 2,-0.8954 2,-2 z m -5,0 c 0,-1.1046 -0.895431,-2 -2,-2 -1.10457,0 -2,0.8954 -2,2 0,1.1046 0.89543,2 2,2 1.104569,0 2,-0.8954 2,-2 z m -5,0 c 0,-1.1046 -0.895431,-2 -2,-2 -1.10457,0 -2,0.8954 -2,2 0,1.1046 0.89543,2 2,2 1.104569,0 2,-0.8954 2,-2 z m -5,0 c 0,-1.1046 -0.895431,-2 -2,-2 -1.10457,0 -2,0.8954 -2,2 0,1.1046 0.89543,2 2,2 1.104569,0 2,-0.8954 2,-2 z m -5,0 c 0,-1.1046 -0.895431,-2 -2,-2 -1.10457,0 -2,0.8954 -2,2 0,1.1046 0.89543,2 2,2 1.104569,0 2,-0.8954 2,-2 z m -5,0 c 0,-1.1046 -0.895431,-2 -2,-2 -1.10457,0 -2,0.8954 -2,2 0,1.1046 0.89543,2 2,2 1.104569,0 2,-0.8954 2,-2 z m -4.5,-2.5 49.999998,0 0,50.0001 -49.999998,0 z"
         inkscape:connector-curvature="0" />
    </g>
  </g>
</svg>
